<svg width="27" height="28" viewBox="0 0 27 28" fill="none" xmlns="http://www.w3.org/2000/svg">
<path d="M26.5443 17.6872C26.2013 16.0117 25.2118 11.9482 23.1207 8.33664C23.1306 8.30036 23.1438 8.26738 23.1537 8.23439C23.3087 7.6638 23.3747 7.0866 23.3483 6.5292C23.3252 6.02786 23.2263 5.5826 23.0812 5.2C22.9459 4.85039 22.7645 4.54695 22.5534 4.29958C22.3555 4.0654 22.1247 3.87411 21.8707 3.73558C21.6266 3.60035 21.3529 3.508 21.056 3.47172C20.7625 3.43544 20.4656 3.45193 20.1721 3.51789C19.9016 3.57726 19.6279 3.68281 19.3607 3.82793C19.2849 3.76856 19.2123 3.7059 19.1365 3.64653C17.0553 1.92154 14.8157 0.420837 13.3183 0.420837C11.7352 0.420837 9.4264 2.03038 7.3617 3.80154C7.11103 3.67291 6.85377 3.57396 6.5998 3.51789C6.30626 3.45193 6.00941 3.43544 5.71587 3.47172C5.42232 3.508 5.14857 3.60035 4.9012 3.73558C4.64724 3.87411 4.41636 4.0654 4.21846 4.29958C4.00737 4.54695 3.82597 4.85039 3.69074 5.2C3.54232 5.5793 3.44667 6.02457 3.42358 6.5292C3.3972 7.0866 3.46316 7.6638 3.61818 8.23439C3.62808 8.27067 3.64127 8.30366 3.65116 8.33664C1.55677 11.9482 0.567299 16.015 0.224281 17.6872C0.0758598 18.1456 0 18.6206 0 19.1054C0 22.5323 3.85895 25.4414 9.20212 26.4539C10.6171 26.7969 12.352 27.1565 13.4305 27.1565C14.5882 27.1565 16.4055 26.7607 17.7875 26.4111C23.0185 25.3589 26.7719 22.4861 26.7719 19.1054C26.7719 18.6206 26.6927 18.1456 26.5476 17.6872H26.5443Z" fill="white"/>
<path d="M13.2029 13.9307C9.93099 13.9307 7.01534 14.7684 5.12874 16.0745C5.05947 16.2823 5.02319 16.4044 5.02319 16.4044C5.02319 16.4044 6.57997 17.8259 7.31548 18.2613C8.05099 18.6933 8.70074 19.0331 9.89141 18.3866C10.7226 17.9314 11.4746 17.3114 12.3618 17.0541C12.6191 17.0376 12.8994 17.0079 13.2029 16.9651C13.2688 16.9552 13.3348 16.9486 13.4008 16.9453C13.4667 16.9519 13.5327 16.9552 13.5986 16.9651C13.8988 17.0079 14.1824 17.0376 14.4397 17.0541C15.3302 17.3114 16.0789 17.9314 16.9101 18.3866C18.0975 19.0364 18.7505 18.6966 19.486 18.2613C20.1655 17.8622 21.5474 16.6154 21.7519 16.4307C19.9016 14.9267 16.765 13.934 13.2062 13.934L13.2029 13.9307Z" fill="#F99B28"/>
<path d="M26.5443 17.6872C26.2013 16.0117 25.2118 11.9482 23.1207 8.33664C23.1306 8.30036 23.1438 8.26738 23.1537 8.23439C23.3087 7.6638 23.3747 7.0866 23.3483 6.5292C23.3252 6.02786 23.2263 5.5826 23.0812 5.2C22.9459 4.85039 22.7645 4.54695 22.5534 4.29958C22.3555 4.0654 22.1247 3.87411 21.8707 3.73558C21.6266 3.60035 21.3529 3.508 21.056 3.47172C20.7625 3.43544 20.4656 3.45193 20.1721 3.51789C19.9016 3.57726 19.6279 3.68281 19.3607 3.82793C19.2849 3.76856 19.2123 3.7059 19.1365 3.64653C17.0553 1.92154 14.8157 0.420837 13.3183 0.420837C11.7352 0.420837 9.4264 2.03038 7.3617 3.80154C7.11103 3.67291 6.85377 3.57396 6.5998 3.51789C6.30626 3.45193 6.00941 3.43544 5.71587 3.47172C5.42232 3.508 5.14857 3.60035 4.9012 3.73558C4.64724 3.87411 4.41636 4.0654 4.21846 4.29958C4.00737 4.54695 3.82597 4.85039 3.69074 5.2C3.54232 5.5793 3.44667 6.02457 3.42358 6.5292C3.3972 7.0866 3.46316 7.6638 3.61818 8.23439C3.62808 8.27067 3.64127 8.30366 3.65116 8.33664C1.55677 11.9482 0.567299 16.015 0.224281 17.6872C0.0758598 18.1456 0 18.6206 0 19.1054C0 22.5323 3.85895 25.4414 9.20212 26.4539C10.6171 26.7969 12.352 27.1565 13.4305 27.1565C14.5882 27.1565 16.4055 26.7607 17.7875 26.4111C23.0185 25.3589 26.7719 22.4861 26.7719 19.1054C26.7719 18.6206 26.6927 18.1456 26.5476 17.6872H26.5443ZM23.7177 18.5579C23.6781 21.025 18.1008 24.3661 18.1008 24.3661C18.1008 24.3661 15.5051 25.9988 13.4041 25.9988C11.3031 25.9988 8.70738 24.3661 8.70738 24.3661C8.70738 24.3661 3.13004 21.025 3.09046 18.5579C3.09046 18.5513 3.09046 18.5447 3.09046 18.5381C3.09046 16.6515 7.70142 14.6594 13.3909 14.6594C13.3975 14.6594 13.4008 14.6594 13.4074 14.6594C13.414 14.6594 13.4173 14.6594 13.4239 14.6594C19.1134 14.6594 23.7243 16.6515 23.7243 18.5381C23.7243 18.5447 23.7243 18.5513 23.7243 18.5579H23.7177Z" fill="#59209F"/>
<path d="M8.94478 16.9025C9.57322 16.9025 10.0827 16.393 10.0827 15.7646C10.0827 15.1362 9.57322 14.6267 8.94478 14.6267C8.31634 14.6267 7.80688 15.1362 7.80688 15.7646C7.80688 16.393 8.31634 16.9025 8.94478 16.9025Z" fill="#59209F"/>
<path d="M17.8237 16.9419C18.4522 16.9419 18.9616 16.4325 18.9616 15.804C18.9616 15.1756 18.4522 14.6661 17.8237 14.6661C17.1953 14.6661 16.6858 15.1756 16.6858 15.804C16.6858 16.4325 17.1953 16.9419 17.8237 16.9419Z" fill="#59209F"/>
<path d="M13.4403 20.105C13.4403 20.105 13.4205 20.1149 13.3843 20.1347C13.348 20.1149 13.3282 20.105 13.3282 20.105C13.3282 20.105 10.4323 20.105 10.5478 21.4375C10.6632 22.77 11.6956 24.0794 13.3051 24.1717C13.3051 24.1717 13.3084 24.1717 13.3117 24.1717C13.3348 24.1717 13.3612 24.1717 13.3843 24.1717C13.4073 24.1717 13.4337 24.1717 13.4568 24.1717C13.4568 24.1717 13.4601 24.1717 13.4634 24.1717C15.073 24.0794 16.1053 22.77 16.2208 21.4375C16.3362 20.105 13.4403 20.105 13.4403 20.105Z" fill="#59209F"/>
</svg>
