<svg width="211" height="36" viewBox="0 0 211 36" fill="none" xmlns="http://www.w3.org/2000/svg">
<path d="M26.5443 19.6315C26.2013 17.956 25.2118 13.8926 23.1207 10.281C23.1306 10.2447 23.1438 10.2117 23.1537 10.1787C23.3087 9.60813 23.3747 9.03094 23.3483 8.47353C23.3252 7.9722 23.2263 7.52694 23.0812 7.14434C22.9459 6.79472 22.7645 6.49128 22.5534 6.24392C22.3555 6.00974 22.1247 5.81844 21.8707 5.67992C21.6266 5.54469 21.3529 5.45234 21.056 5.41606C20.7625 5.37977 20.4656 5.39627 20.1721 5.46223C19.9016 5.5216 19.6279 5.62714 19.3607 5.77227C19.2849 5.7129 19.2123 5.65023 19.1365 5.59086C17.0553 3.86588 14.8157 2.36517 13.3183 2.36517C11.7352 2.36517 9.4264 3.97472 7.3617 5.74588C7.11103 5.61725 6.85377 5.5183 6.5998 5.46223C6.30626 5.39627 6.00941 5.37977 5.71587 5.41606C5.42232 5.45234 5.14857 5.54469 4.9012 5.67992C4.64724 5.81844 4.41636 6.00974 4.21846 6.24392C4.00737 6.49128 3.82597 6.79472 3.69074 7.14434C3.54232 7.52364 3.44667 7.9689 3.42358 8.47353C3.3972 9.03094 3.46316 9.60813 3.61818 10.1787C3.62808 10.215 3.64127 10.248 3.65116 10.281C1.55677 13.8926 0.567299 17.9593 0.224281 19.6315C0.0758598 20.09 0 20.5649 0 21.0498C0 24.4766 3.85895 27.3857 9.20212 28.3983C10.6171 28.7413 12.352 29.1008 13.4305 29.1008C14.5882 29.1008 16.4055 28.705 17.7875 28.3554C23.0185 27.3032 26.7719 24.4305 26.7719 21.0498C26.7719 20.5649 26.6927 20.09 26.5476 19.6315H26.5443Z" fill="white"/>
<path d="M45.3312 27.5475C43.7613 27.5475 42.3496 27.1254 41.0996 26.281C39.8495 25.4366 38.8634 24.2691 38.1377 22.7816C37.4121 21.294 37.0493 19.5987 37.0493 17.6957C37.0493 15.7926 37.4055 14.0313 38.1212 12.5537C38.8337 11.0794 39.8231 9.91838 41.0831 9.07402C42.343 8.22967 43.7975 7.8075 45.4368 7.8075C46.3174 7.8075 47.1255 7.92623 47.8643 8.16371C48.6031 8.40118 49.243 8.7475 49.7905 9.19936C50.338 9.65122 50.8129 10.1624 51.2186 10.733C51.6243 11.3036 51.9574 11.9237 52.218 12.59L50.8624 12.5174V8.19669H57.3962V27.2243H50.7206V22.5837L52.185 22.6562C51.9706 23.3456 51.654 23.9887 51.2384 24.5824C50.8228 25.1761 50.3149 25.6939 49.7212 26.1359C49.1275 26.5778 48.4646 26.9209 47.7389 27.1715C47.0133 27.4222 46.2086 27.5475 45.3279 27.5475H45.3312ZM47.2244 22.0856C47.9863 22.0856 48.6394 21.9141 49.1869 21.5678C49.7344 21.2215 50.1566 20.7168 50.4534 20.0506C50.7502 19.3844 50.8987 18.5994 50.8987 17.6957C50.8987 16.7919 50.7502 15.9707 50.4534 15.3044C50.1566 14.6382 49.7344 14.1335 49.1869 13.7872C48.6394 13.4409 47.9863 13.2694 47.2244 13.2694C46.4625 13.2694 45.8128 13.4409 45.2785 13.7872C44.7441 14.1335 44.3319 14.6382 44.0482 15.3044C43.7613 15.9707 43.6194 16.7688 43.6194 17.6957C43.6194 18.6225 43.7613 19.3844 44.0482 20.0506C44.3352 20.7168 44.7441 21.2215 45.2785 21.5678C45.8128 21.9141 46.4625 22.0856 47.2244 22.0856Z" fill="#59209F"/>
<path d="M69.9988 27.5805C68.1188 27.5805 66.4334 27.1517 64.9492 26.2941C63.4617 25.4366 62.2908 24.2657 61.4333 22.7782C60.5757 21.2907 60.147 19.5954 60.147 17.6923C60.147 15.7892 60.5757 14.0939 61.4333 12.6064C62.2908 11.1189 63.4617 9.948 64.9492 9.09046C66.4367 8.23291 68.1188 7.80414 69.9988 7.80414C71.7139 7.80414 73.2872 8.07789 74.7285 8.6254C76.1666 9.17291 77.3177 9.9579 78.1719 10.9804L74.5669 15.2648C74.3064 14.9317 73.9732 14.6282 73.5676 14.3545C73.1619 14.0807 72.7166 13.8663 72.2285 13.7113C71.7403 13.5563 71.1994 13.4804 70.6057 13.4804C69.8207 13.4804 69.1314 13.6585 68.5344 14.0147C67.9407 14.371 67.4823 14.8657 67.1591 15.4957C66.8391 16.1256 66.6775 16.8479 66.6775 17.656C66.6775 18.4641 66.8325 19.1798 67.1426 19.7966C67.4526 20.4166 67.9111 20.9147 68.5179 21.2973C69.1248 21.6799 69.8207 21.8679 70.6057 21.8679C71.1994 21.8679 71.7403 21.7953 72.2285 21.6535C72.7166 21.5117 73.1553 21.3072 73.5478 21.0466C73.9403 20.7861 74.28 20.476 74.5636 20.1198L78.1686 24.4405C77.288 25.4399 76.127 26.215 74.689 26.7625C73.2476 27.31 71.6843 27.5837 69.9955 27.5837L69.9988 27.5805Z" fill="#59209F"/>
<path d="M88.7362 27.5805C86.8562 27.5805 85.1707 27.1517 83.6865 26.2941C82.199 25.4366 81.0281 24.2657 80.1706 22.7782C79.3131 21.2907 78.8843 19.5954 78.8843 17.6923C78.8843 15.7892 79.3131 14.0939 80.1706 12.6064C81.0281 11.1189 82.199 9.948 83.6865 9.09046C85.174 8.23291 86.8562 7.80414 88.7362 7.80414C90.4512 7.80414 92.0245 8.07789 93.4658 8.6254C94.9039 9.17291 96.055 9.9579 96.9092 10.9804L93.3042 15.2648C93.0437 14.9317 92.7105 14.6282 92.3049 14.3545C91.8992 14.0807 91.4539 13.8663 90.9658 13.7113C90.4776 13.5563 89.9367 13.4804 89.343 13.4804C88.5581 13.4804 87.8687 13.6585 87.2717 14.0147C86.678 14.371 86.2196 14.8657 85.8964 15.4957C85.5764 16.1256 85.4148 16.8479 85.4148 17.656C85.4148 18.4641 85.5698 19.1798 85.8799 19.7966C86.1899 20.4166 86.6484 20.9147 87.2552 21.2973C87.8621 21.6799 88.5581 21.8679 89.343 21.8679C89.9367 21.8679 90.4776 21.7953 90.9658 21.6535C91.4539 21.5117 91.8926 21.3072 92.2851 21.0466C92.6776 20.7861 93.0173 20.476 93.3009 20.1198L96.9059 24.4405C96.0253 25.4399 94.8643 26.215 93.4263 26.7625C91.9849 27.31 90.4216 27.5837 88.7329 27.5837L88.7362 27.5805Z" fill="#59209F"/>
<path d="M111.085 27.6168C110.204 27.6168 109.37 27.5046 108.585 27.2771C107.8 27.0528 107.097 26.7427 106.477 26.3502C105.857 25.9578 105.346 25.4993 104.944 24.9749C104.538 24.4505 104.277 23.8931 104.159 23.2961L105.514 22.9399L105.049 27.188H98.9805V0.808594H105.656V12.8043L104.228 12.3393C104.37 11.6961 104.65 11.1024 105.066 10.5549C105.481 10.0074 105.989 9.52587 106.583 9.11029C107.177 8.69471 107.843 8.37478 108.582 8.1472C109.32 7.92292 110.092 7.80748 110.904 7.80748C112.546 7.80748 113.991 8.22966 115.241 9.07401C116.491 9.91836 117.477 11.0892 118.203 12.5899C118.928 14.0906 119.291 15.8024 119.291 17.7286C119.291 19.6548 118.935 21.3633 118.219 22.8508C117.507 24.3383 116.53 25.5059 115.294 26.3502C114.057 27.1946 112.652 27.6168 111.082 27.6168H111.085ZM109.159 22.1549C109.921 22.1549 110.571 21.9702 111.105 21.6008C111.639 21.2314 112.058 20.7201 112.355 20.0671C112.652 19.414 112.8 18.6323 112.8 17.7286C112.8 16.8249 112.658 16.0036 112.371 15.3374C112.084 14.6711 111.669 14.1665 111.121 13.8202C110.574 13.4772 109.921 13.3024 109.159 13.3024C108.397 13.3024 107.744 13.4772 107.196 13.8202C106.649 14.1665 106.227 14.6711 105.93 15.3374C105.633 16.0036 105.485 16.8018 105.485 17.7286C105.485 18.6554 105.633 19.414 105.93 20.0671C106.227 20.7234 106.649 21.2347 107.196 21.6008C107.744 21.9702 108.397 22.1549 109.159 22.1549Z" fill="#F99B28"/>
<path d="M128.467 27.6169C127.039 27.6169 125.825 27.3135 124.826 26.7066C123.826 26.0997 123.064 25.2257 122.54 24.0845C122.015 22.9433 121.755 21.5614 121.755 19.9452V8.19684H128.394V19.2625C128.394 19.8825 128.5 20.4037 128.714 20.8324C128.929 21.2612 129.225 21.5877 129.608 21.8153C129.987 22.0429 130.452 22.155 131 22.155C131.429 22.155 131.815 22.0957 132.161 21.9769C132.504 21.8582 132.797 21.6735 133.035 21.4228C133.272 21.1722 133.464 20.8885 133.605 20.5653C133.747 20.2453 133.82 19.8924 133.82 19.5131V8.19684H140.459V27.2244H134.318L133.962 23.3688L135.212 22.94C134.948 23.8207 134.486 24.6188 133.82 25.3312C133.154 26.0437 132.355 26.6044 131.429 27.0101C130.502 27.4157 129.512 27.6169 128.467 27.6169Z" fill="#F99B28"/>
<path d="M151.565 27.6168C149.968 27.6168 148.547 27.1946 147.3 26.3502C146.05 25.5059 145.07 24.3383 144.355 22.8508C143.642 21.3633 143.283 19.6548 143.283 17.7286C143.283 15.8024 143.646 14.0939 144.371 12.6064C145.097 11.1189 146.09 9.94805 147.353 9.0905C148.613 8.23296 150.054 7.80418 151.673 7.80418C152.508 7.80418 153.303 7.92292 154.065 8.1604C154.827 8.39787 155.509 8.73099 156.116 9.15976C156.723 9.58854 157.234 10.0866 157.65 10.6605C158.065 11.2311 158.333 11.8379 158.455 12.4811L156.921 12.9099V0.808594H163.597V27.2243H157.564L157.099 22.9761L158.418 23.2268C158.323 23.8469 158.072 24.4175 157.67 24.9386C157.264 25.463 156.759 25.9281 156.152 26.3305C155.546 26.7361 154.843 27.0495 154.045 27.2771C153.247 27.5046 152.422 27.6168 151.565 27.6168ZM153.458 22.1912C154.22 22.1912 154.873 22.0065 155.42 21.637C155.968 21.2676 156.383 20.7564 156.67 20.1034C156.957 19.4503 157.099 18.6587 157.099 17.7286C157.099 16.7985 156.957 15.997 156.67 15.3176C156.383 14.6382 155.968 14.1269 155.42 13.7839C154.873 13.4376 154.22 13.2661 153.458 13.2661C152.696 13.2661 152.043 13.4376 151.495 13.7839C150.948 14.1302 150.532 14.6415 150.245 15.3176C149.958 15.9937 149.817 16.7985 149.817 17.7286C149.817 18.6587 149.958 19.447 150.245 20.1034C150.532 20.7597 150.948 21.2709 151.495 21.637C152.043 22.0065 152.696 22.1912 153.458 22.1912Z" fill="#F99B28"/>
<path d="M174.339 27.6168C172.743 27.6168 171.321 27.1946 170.074 26.3502C168.824 25.5059 167.845 24.3383 167.129 22.8508C166.417 21.3633 166.057 19.6548 166.057 17.7286C166.057 15.8024 166.42 14.0939 167.146 12.6064C167.871 11.1189 168.864 9.94805 170.127 9.0905C171.387 8.23296 172.828 7.80418 174.448 7.80418C175.282 7.80418 176.077 7.92292 176.839 8.1604C177.601 8.39787 178.284 8.73099 178.891 9.15976C179.498 9.58854 180.009 10.0866 180.424 10.6605C180.84 11.2311 181.107 11.8379 181.229 12.4811L179.695 12.9099V0.808594H186.371V27.2243H180.339L179.873 22.9761L181.193 23.2268C181.097 23.8469 180.846 24.4175 180.444 24.9386C180.038 25.463 179.534 25.9281 178.927 26.3305C178.32 26.7361 177.617 27.0495 176.819 27.2771C176.021 27.5046 175.197 27.6168 174.339 27.6168ZM176.232 22.1912C176.994 22.1912 177.647 22.0065 178.195 21.637C178.742 21.2676 179.158 20.7564 179.445 20.1034C179.732 19.4503 179.873 18.6587 179.873 17.7286C179.873 16.7985 179.732 15.997 179.445 15.3176C179.158 14.6382 178.742 14.1269 178.195 13.7839C177.647 13.4376 176.994 13.2661 176.232 13.2661C175.47 13.2661 174.817 13.4376 174.27 13.7839C173.722 14.1302 173.307 14.6415 173.02 15.3176C172.733 15.9937 172.591 16.7985 172.591 17.7286C172.591 18.6587 172.733 19.447 173.02 20.1034C173.307 20.7597 173.722 21.2709 174.27 21.637C174.817 22.0065 175.47 22.1912 176.232 22.1912Z" fill="#F99B28"/>
<path d="M192.258 35.4337L196.826 24.6517L196.899 27.5772L187.868 8.19342H195.293L198.469 15.7596C198.729 16.3533 198.963 16.9437 199.165 17.5275C199.366 18.1113 199.514 18.6654 199.61 19.1865L198.861 19.7571C198.957 19.4471 199.099 19.0216 199.29 18.4708C199.481 17.9233 199.696 17.2933 199.933 16.5776L202.826 8.19012H210.286L202.041 27.2177L198.719 35.4271H192.258V35.4337Z" fill="#F99B28"/>
<path d="M13.2031 15.875C9.93123 15.875 7.01558 16.7128 5.12898 18.0189C5.05972 18.2267 5.02344 18.3487 5.02344 18.3487C5.02344 18.3487 6.58021 19.7702 7.31572 20.2056C8.05123 20.6377 8.70099 20.9774 9.89166 20.3309C10.7228 19.8758 11.4748 19.2557 12.362 18.9984C12.6193 18.982 12.8997 18.9523 13.2031 18.9094C13.2691 18.8995 13.335 18.8929 13.401 18.8896C13.467 18.8962 13.5329 18.8995 13.5989 18.9094C13.899 18.9523 14.1827 18.982 14.4399 18.9984C15.3305 19.2557 16.0792 19.8758 16.9103 20.3309C18.0977 20.9807 18.7508 20.641 19.4863 20.2056C20.1657 19.8065 21.5477 18.5598 21.7522 18.3751C19.9018 16.8711 16.7652 15.8783 13.2064 15.8783L13.2031 15.875Z" fill="#F99B28"/>
<path d="M26.5443 19.6315C26.2013 17.956 25.2118 13.8926 23.1207 10.281C23.1306 10.2447 23.1438 10.2117 23.1537 10.1787C23.3087 9.60813 23.3747 9.03094 23.3483 8.47353C23.3252 7.9722 23.2263 7.52694 23.0812 7.14434C22.9459 6.79472 22.7645 6.49128 22.5534 6.24392C22.3555 6.00974 22.1247 5.81844 21.8707 5.67992C21.6266 5.54469 21.3529 5.45234 21.056 5.41606C20.7625 5.37977 20.4656 5.39627 20.1721 5.46223C19.9016 5.5216 19.6279 5.62714 19.3607 5.77227C19.2849 5.7129 19.2123 5.65023 19.1365 5.59086C17.0553 3.86588 14.8157 2.36517 13.3183 2.36517C11.7352 2.36517 9.4264 3.97472 7.3617 5.74588C7.11103 5.61725 6.85377 5.5183 6.5998 5.46223C6.30626 5.39627 6.00941 5.37977 5.71587 5.41606C5.42232 5.45234 5.14857 5.54469 4.9012 5.67992C4.64724 5.81844 4.41636 6.00974 4.21846 6.24392C4.00737 6.49128 3.82597 6.79472 3.69074 7.14434C3.54232 7.52364 3.44667 7.9689 3.42358 8.47353C3.3972 9.03094 3.46316 9.60813 3.61818 10.1787C3.62808 10.215 3.64127 10.248 3.65116 10.281C1.55677 13.8926 0.567299 17.9593 0.224281 19.6315C0.0758598 20.09 0 20.5649 0 21.0498C0 24.4766 3.85895 27.3857 9.20212 28.3983C10.6171 28.7413 12.352 29.1008 13.4305 29.1008C14.5882 29.1008 16.4055 28.705 17.7875 28.3554C23.0185 27.3032 26.7719 24.4305 26.7719 21.0498C26.7719 20.5649 26.6927 20.09 26.5476 19.6315H26.5443ZM23.7177 20.5023C23.6781 22.9693 18.1008 26.3105 18.1008 26.3105C18.1008 26.3105 15.5051 27.9431 13.4041 27.9431C11.3031 27.9431 8.70738 26.3105 8.70738 26.3105C8.70738 26.3105 3.13004 22.9693 3.09046 20.5023C3.09046 20.4957 3.09046 20.4891 3.09046 20.4825C3.09046 18.5959 7.70142 16.6037 13.3909 16.6037C13.3975 16.6037 13.4008 16.6037 13.4074 16.6037C13.414 16.6037 13.4173 16.6037 13.4239 16.6037C19.1134 16.6037 23.7243 18.5959 23.7243 20.4825C23.7243 20.4891 23.7243 20.4957 23.7243 20.5023H23.7177Z" fill="#59209F"/>
<path d="M8.94503 18.8468C9.57347 18.8468 10.0829 18.3374 10.0829 17.7089C10.0829 17.0805 9.57347 16.571 8.94503 16.571C8.31658 16.571 7.80713 17.0805 7.80713 17.7089C7.80713 18.3374 8.31658 18.8468 8.94503 18.8468Z" fill="#59209F"/>
<path d="M17.8239 18.8862C18.4524 18.8862 18.9618 18.3768 18.9618 17.7483C18.9618 17.1199 18.4524 16.6104 17.8239 16.6104C17.1955 16.6104 16.686 17.1199 16.686 17.7483C16.686 18.3768 17.1955 18.8862 17.8239 18.8862Z" fill="#59209F"/>
<path d="M13.4404 22.0493C13.4404 22.0493 13.4206 22.0592 13.3843 22.079C13.348 22.0592 13.3282 22.0493 13.3282 22.0493C13.3282 22.0493 10.4324 22.0493 10.5478 23.3818C10.6632 24.7143 11.6956 26.0237 13.3051 26.1161C13.3051 26.1161 13.3084 26.1161 13.3117 26.1161C13.3348 26.1161 13.3612 26.1161 13.3843 26.1161C13.4074 26.1161 13.4338 26.1161 13.4569 26.1161C13.4569 26.1161 13.4602 26.1161 13.4634 26.1161C15.073 26.0237 16.1053 24.7143 16.2208 23.3818C16.3362 22.0493 13.4404 22.0493 13.4404 22.0493Z" fill="#59209F"/>
</svg>
