<svg width="125" height="22" viewBox="0 0 125 22" fill="none" xmlns="http://www.w3.org/2000/svg">
<path d="M15.7102 12.0031C15.5071 11.0114 14.9215 8.6065 13.6839 6.469C13.6898 6.44752 13.6976 6.428 13.7034 6.40848C13.7952 6.07078 13.8342 5.72917 13.8186 5.39927C13.8049 5.10256 13.7464 4.83903 13.6605 4.61259C13.5805 4.40567 13.4731 4.22608 13.3482 4.07968C13.231 3.94108 13.0944 3.82786 12.9441 3.74588C12.7996 3.66584 12.6376 3.61118 12.4619 3.58971C12.2882 3.56824 12.1125 3.578 11.9388 3.61704C11.7787 3.65218 11.6167 3.71464 11.4586 3.80053C11.4137 3.7654 11.3707 3.72831 11.3258 3.69317C10.0941 2.67224 8.76864 1.78406 7.88241 1.78406C6.94542 1.78406 5.57898 2.73666 4.35699 3.78492C4.20864 3.70879 4.05638 3.65022 3.90607 3.61704C3.73233 3.578 3.55665 3.56824 3.38292 3.58971C3.20918 3.61118 3.04716 3.66584 2.90076 3.74588C2.75045 3.82786 2.6138 3.94108 2.49668 4.07968C2.37175 4.22608 2.26439 4.40567 2.18435 4.61259C2.09651 4.83708 2.0399 5.1006 2.02624 5.39927C2.01062 5.72917 2.04966 6.07078 2.14141 6.40848C2.14726 6.42995 2.15507 6.44947 2.16093 6.469C0.921371 8.6065 0.335754 11.0134 0.13274 12.0031C0.0448973 12.2744 0 12.5555 0 12.8425C0 14.8706 2.28391 16.5924 5.44624 17.1916C6.28367 17.3947 7.31045 17.6074 7.94878 17.6074C8.63395 17.6074 9.70953 17.3732 10.5274 17.1663C13.6234 16.5436 15.8448 14.8433 15.8448 12.8425C15.8448 12.5555 15.798 12.2744 15.7121 12.0031H15.7102Z" fill="white"/>
<path d="M26.8291 16.6882C25.8999 16.6882 25.0644 16.4383 24.3246 15.9386C23.5848 15.4389 23.0011 14.7478 22.5717 13.8675C22.1422 12.9871 21.9275 11.9837 21.9275 10.8574C21.9275 9.73106 22.1383 8.68866 22.5619 7.81414C22.9836 6.94157 23.5692 6.25444 24.3149 5.75472C25.0605 5.25499 25.9214 5.00513 26.8916 5.00513C27.4128 5.00513 27.891 5.0754 28.3283 5.21595C28.7655 5.3565 29.1442 5.56146 29.4683 5.8289C29.7923 6.09633 30.0734 6.3989 30.3135 6.7366C30.5536 7.07431 30.7508 7.44129 30.905 7.83561L30.1027 7.79267V5.23547H33.9697V16.4969H30.0188V13.7503L30.8855 13.7933C30.7586 14.2013 30.5712 14.5819 30.3252 14.9333C30.0793 15.2847 29.7787 15.5911 29.4273 15.8527C29.0759 16.1143 28.6836 16.3173 28.2541 16.4657C27.8247 16.614 27.3484 16.6882 26.8272 16.6882H26.8291ZM27.9496 13.4556C28.4005 13.4556 28.787 13.3541 29.1111 13.1491C29.4351 12.9441 29.685 12.6455 29.8607 12.2512C30.0363 11.8568 30.1242 11.3923 30.1242 10.8574C30.1242 10.3225 30.0363 9.83647 29.8607 9.44215C29.685 9.04784 29.4351 8.74917 29.1111 8.54421C28.787 8.33924 28.4005 8.23773 27.9496 8.23773C27.4987 8.23773 27.1141 8.33924 26.7979 8.54421C26.4816 8.74917 26.2376 9.04784 26.0698 9.44215C25.8999 9.83647 25.816 10.3089 25.816 10.8574C25.816 11.4059 25.8999 11.8568 26.0698 12.2512C26.2396 12.6455 26.4816 12.9441 26.7979 13.1491C27.1141 13.3541 27.4987 13.4556 27.9496 13.4556Z" fill="#59209F"/>
<path d="M41.4286 16.7077C40.3159 16.7077 39.3184 16.4539 38.44 15.9464C37.5596 15.4389 36.8666 14.7459 36.3591 13.8655C35.8515 12.9851 35.5978 11.9818 35.5978 10.8554C35.5978 9.7291 35.8515 8.72575 36.3591 7.84537C36.8666 6.96499 37.5596 6.27201 38.44 5.76448C39.3204 5.25694 40.3159 5.00317 41.4286 5.00317C42.4436 5.00317 43.3748 5.16519 44.2278 5.48924C45.0789 5.81328 45.7602 6.27787 46.2658 6.88301L44.1322 9.41873C43.978 9.22157 43.7808 9.04198 43.5407 8.87996C43.3006 8.71794 43.0371 8.59106 42.7482 8.49931C42.4593 8.40756 42.1391 8.36266 41.7878 8.36266C41.3232 8.36266 40.9152 8.46808 40.5619 8.6789C40.2105 8.88972 39.9392 9.18253 39.7479 9.55537C39.5585 9.92821 39.4629 10.3557 39.4629 10.834C39.4629 11.3122 39.5546 11.7358 39.7381 12.1009C39.9216 12.4678 40.1929 12.7626 40.5521 12.989C40.9113 13.2155 41.3232 13.3267 41.7878 13.3267C42.1391 13.3267 42.4593 13.2838 42.7482 13.1999C43.0371 13.1159 43.2967 12.9949 43.529 12.8407C43.7613 12.6865 43.9623 12.503 44.1302 12.2922L46.2638 14.8494C45.7426 15.4408 45.0555 15.8996 44.2044 16.2236C43.3513 16.5476 42.4261 16.7097 41.4266 16.7097L41.4286 16.7077Z" fill="#59209F"/>
<path d="M52.5182 16.7077C51.4055 16.7077 50.408 16.4539 49.5296 15.9464C48.6492 15.4389 47.9562 14.7459 47.4487 13.8655C46.9411 12.9851 46.6874 11.9818 46.6874 10.8554C46.6874 9.7291 46.9411 8.72575 47.4487 7.84537C47.9562 6.96499 48.6492 6.27201 49.5296 5.76448C50.41 5.25694 51.4055 5.00317 52.5182 5.00317C53.5332 5.00317 54.4644 5.16519 55.3174 5.48924C56.1685 5.81328 56.8498 6.27787 57.3554 6.88301L55.2218 9.41873C55.0676 9.22157 54.8704 9.04198 54.6303 8.87996C54.3902 8.71794 54.1267 8.59106 53.8378 8.49931C53.5489 8.40756 53.2287 8.36266 52.8774 8.36266C52.4128 8.36266 52.0048 8.46808 51.6515 8.6789C51.3001 8.88972 51.0288 9.18253 50.8375 9.55537C50.6481 9.92821 50.5525 10.3557 50.5525 10.834C50.5525 11.3122 50.6442 11.7358 50.8277 12.1009C51.0112 12.4678 51.2825 12.7626 51.6417 12.989C52.0009 13.2155 52.4128 13.3267 52.8774 13.3267C53.2287 13.3267 53.5489 13.2838 53.8378 13.1999C54.1267 13.1159 54.3863 12.9949 54.6186 12.8407C54.8509 12.6865 55.0519 12.503 55.2198 12.2922L57.3534 14.8494C56.8322 15.4408 56.1451 15.8996 55.294 16.2236C54.441 16.5476 53.5157 16.7097 52.5162 16.7097L52.5182 16.7077Z" fill="#59209F"/>
<path d="M65.7452 16.7291C65.224 16.7291 64.7302 16.6627 64.2656 16.5281C63.801 16.3953 63.3852 16.2118 63.0182 15.9795C62.6512 15.7472 62.3486 15.4759 62.1105 15.1655C61.8704 14.8551 61.7162 14.5252 61.6459 14.1719L62.4482 13.9611L62.173 16.4753H58.5812V0.862793H62.5321V7.96243L61.6869 7.68719C61.7708 7.30653 61.9368 6.95516 62.1827 6.63112C62.4287 6.30708 62.7293 6.02208 63.0807 5.77612C63.432 5.53016 63.8264 5.34081 64.2636 5.20612C64.7009 5.07338 65.1577 5.00506 65.6379 5.00506C66.61 5.00506 67.465 5.25492 68.2048 5.75465C68.9446 6.25437 69.5283 6.94736 69.9578 7.83554C70.3872 8.72373 70.6019 9.73685 70.6019 10.8768C70.6019 12.0168 70.3911 13.028 69.9675 13.9084C69.5459 14.7888 68.9681 15.4798 68.2361 15.9795C67.504 16.4793 66.6725 16.7291 65.7433 16.7291H65.7452ZM64.6052 13.4965C65.0561 13.4965 65.4407 13.3872 65.7569 13.1686C66.0732 12.9499 66.3211 12.6474 66.4968 12.2609C66.6725 11.8743 66.7603 11.4117 66.7603 10.8768C66.7603 10.342 66.6764 9.85592 66.5065 9.46161C66.3367 9.06729 66.0907 8.76863 65.7667 8.56366C65.4427 8.36065 65.0561 8.25719 64.6052 8.25719C64.1543 8.25719 63.7678 8.36065 63.4438 8.56366C63.1197 8.76863 62.8698 9.06729 62.6942 9.46161C62.5185 9.85592 62.4306 10.3283 62.4306 10.8768C62.4306 11.4254 62.5185 11.8743 62.6942 12.2609C62.8698 12.6493 63.1197 12.9519 63.4438 13.1686C63.7678 13.3872 64.1543 13.4965 64.6052 13.4965Z" fill="#F99B28"/>
<path d="M76.0326 16.7292C75.1874 16.7292 74.469 16.5496 73.8775 16.1904C73.2861 15.8312 72.8351 15.3139 72.5248 14.6385C72.2144 13.9631 72.0602 13.1452 72.0602 12.1887V5.23547H75.9897V11.7846C75.9897 12.1516 76.0521 12.46 76.179 12.7138C76.3059 12.9676 76.4816 13.1608 76.708 13.2955C76.9325 13.4302 77.2078 13.4966 77.5318 13.4966C77.7856 13.4966 78.014 13.4614 78.2189 13.3912C78.4219 13.3209 78.5957 13.2116 78.7362 13.0632C78.8768 12.9149 78.99 12.747 79.0739 12.5557C79.1579 12.3663 79.2008 12.1575 79.2008 11.933V5.23547H83.1303V16.4969H79.4956L79.2847 14.2149L80.0246 13.9612C79.8684 14.4824 79.5951 14.9548 79.2008 15.3764C78.8065 15.7981 78.3341 16.1299 77.7856 16.37C77.237 16.6101 76.6514 16.7292 76.0326 16.7292Z" fill="#F99B28"/>
<path d="M89.703 16.7291C88.7582 16.7291 87.9169 16.4793 87.179 15.9795C86.4392 15.4798 85.8594 14.7888 85.4358 13.9084C85.0142 13.028 84.8014 12.0168 84.8014 10.8768C84.8014 9.73685 85.0161 8.72568 85.4456 7.8453C85.875 6.96492 86.4626 6.27194 87.2102 5.76441C87.9559 5.25687 88.809 5.00311 89.7674 5.00311C90.2613 5.00311 90.7317 5.07338 91.1827 5.21393C91.6336 5.35448 92.0377 5.55163 92.3968 5.8054C92.756 6.05917 93.0586 6.35393 93.3046 6.69359C93.5505 7.03129 93.7086 7.39047 93.7809 7.77112L92.8731 8.02489V0.862793H96.8241V16.4968H93.2538L92.9786 13.9826L93.7594 14.1309C93.7028 14.4979 93.5544 14.8356 93.3163 15.144C93.0762 15.4544 92.7775 15.7297 92.4183 15.9678C92.0591 16.2079 91.6433 16.3934 91.1709 16.5281C90.6986 16.6627 90.2105 16.7291 89.703 16.7291ZM90.8235 13.518C91.2744 13.518 91.6609 13.4087 91.985 13.19C92.309 12.9714 92.555 12.6688 92.7248 12.2823C92.8946 11.8958 92.9786 11.4273 92.9786 10.8768C92.9786 10.3264 92.8946 9.85202 92.7248 9.44989C92.555 9.04777 92.309 8.7452 91.985 8.54219C91.6609 8.33722 91.2744 8.23571 90.8235 8.23571C90.3726 8.23571 89.9861 8.33722 89.662 8.54219C89.338 8.74715 89.092 9.04972 88.9222 9.44989C88.7524 9.85007 88.6684 10.3264 88.6684 10.8768C88.6684 11.4273 88.7524 11.8939 88.9222 12.2823C89.092 12.6708 89.338 12.9734 89.662 13.19C89.9861 13.4087 90.3726 13.518 90.8235 13.518Z" fill="#F99B28"/>
<path d="M103.182 16.7291C102.237 16.7291 101.396 16.4793 100.658 15.9795C99.9181 15.4798 99.3383 14.7888 98.9147 13.9084C98.493 13.028 98.2803 12.0168 98.2803 10.8768C98.2803 9.73685 98.495 8.72568 98.9244 7.8453C99.3539 6.96492 99.9415 6.27194 100.689 5.76441C101.435 5.25687 102.288 5.00311 103.246 5.00311C103.74 5.00311 104.211 5.07338 104.662 5.21393C105.112 5.35448 105.517 5.55163 105.876 5.8054C106.235 6.05917 106.537 6.35393 106.783 6.69359C107.029 7.03129 107.188 7.39047 107.26 7.77112L106.352 8.02489V0.862793H110.303V16.4968H106.733L106.457 13.9826L107.238 14.1309C107.182 14.4979 107.033 14.8356 106.795 15.144C106.555 15.4544 106.256 15.7297 105.897 15.9678C105.538 16.2079 105.122 16.3934 104.65 16.5281C104.177 16.6627 103.689 16.7291 103.182 16.7291ZM104.302 13.518C104.753 13.518 105.14 13.4087 105.464 13.19C105.788 12.9714 106.034 12.6688 106.204 12.2823C106.374 11.8958 106.457 11.4273 106.457 10.8768C106.457 10.3264 106.374 9.85202 106.204 9.44989C106.034 9.04777 105.788 8.7452 105.464 8.54219C105.14 8.33722 104.753 8.23571 104.302 8.23571C103.851 8.23571 103.465 8.33722 103.141 8.54219C102.817 8.74715 102.571 9.04972 102.401 9.44989C102.231 9.85007 102.147 10.3264 102.147 10.8768C102.147 11.4273 102.231 11.8939 102.401 12.2823C102.571 12.6708 102.817 12.9734 103.141 13.19C103.465 13.4087 103.851 13.518 104.302 13.518Z" fill="#F99B28"/>
<path d="M113.787 21.3554L116.491 14.9742L116.534 16.7056L111.189 5.2334H115.583L117.463 9.71142C117.617 10.0628 117.756 10.4122 117.875 10.7577C117.994 11.1032 118.082 11.4312 118.138 11.7396L117.695 12.0773C117.752 11.8938 117.836 11.642 117.949 11.316C118.062 10.992 118.189 10.6191 118.33 10.1955L120.042 5.23145H124.457L119.577 16.4929L117.611 21.3515H113.787V21.3554Z" fill="#F99B28"/>
<path d="M7.81425 9.77979C5.87781 9.77979 4.15219 10.2756 3.03561 11.0486C2.99462 11.1716 2.97314 11.2438 2.97314 11.2438C2.97314 11.2438 3.89452 12.0852 4.32982 12.3428C4.76513 12.5986 5.14969 12.7996 5.85438 12.417C6.3463 12.1476 6.79137 11.7806 7.31647 11.6284C7.46873 11.6186 7.63466 11.6011 7.81425 11.5757C7.85329 11.5698 7.89233 11.5659 7.93137 11.564C7.97041 11.5679 8.00945 11.5698 8.04849 11.5757C8.22613 11.6011 8.39401 11.6186 8.54627 11.6284C9.07332 11.7806 9.51644 12.1476 10.0084 12.417C10.7111 12.8016 11.0976 12.6005 11.5329 12.3428C11.935 12.1066 12.753 11.3688 12.874 11.2594C11.7789 10.3693 9.92247 9.78174 7.8162 9.78174L7.81425 9.77979Z" fill="#F99B28"/>
<path d="M15.7102 12.0031C15.5071 11.0114 14.9215 8.6065 13.6839 6.469C13.6898 6.44752 13.6976 6.428 13.7034 6.40848C13.7952 6.07078 13.8342 5.72917 13.8186 5.39927C13.8049 5.10256 13.7464 4.83903 13.6605 4.61259C13.5805 4.40567 13.4731 4.22608 13.3482 4.07968C13.231 3.94108 13.0944 3.82786 12.9441 3.74588C12.7996 3.66584 12.6376 3.61118 12.4619 3.58971C12.2882 3.56824 12.1125 3.578 11.9388 3.61704C11.7787 3.65218 11.6167 3.71464 11.4586 3.80053C11.4137 3.7654 11.3707 3.72831 11.3258 3.69317C10.0941 2.67224 8.76864 1.78406 7.88241 1.78406C6.94542 1.78406 5.57898 2.73666 4.35699 3.78492C4.20864 3.70879 4.05638 3.65022 3.90607 3.61704C3.73233 3.578 3.55665 3.56824 3.38292 3.58971C3.20918 3.61118 3.04716 3.66584 2.90076 3.74588C2.75045 3.82786 2.6138 3.94108 2.49668 4.07968C2.37175 4.22608 2.26439 4.40567 2.18435 4.61259C2.09651 4.83708 2.0399 5.1006 2.02624 5.39927C2.01062 5.72917 2.04966 6.07078 2.14141 6.40848C2.14726 6.42995 2.15507 6.44947 2.16093 6.469C0.921371 8.6065 0.335754 11.0134 0.13274 12.0031C0.0448973 12.2744 0 12.5555 0 12.8425C0 14.8706 2.28391 16.5924 5.44624 17.1916C6.28367 17.3947 7.31045 17.6074 7.94878 17.6074C8.63395 17.6074 9.70953 17.3732 10.5274 17.1663C13.6234 16.5436 15.8448 14.8433 15.8448 12.8425C15.8448 12.5555 15.798 12.2744 15.7121 12.0031H15.7102ZM14.0372 12.5184C14.0138 13.9786 10.7129 15.956 10.7129 15.956C10.7129 15.956 9.17662 16.9223 7.93316 16.9223C6.6897 16.9223 5.15343 15.956 5.15343 15.956C5.15343 15.956 1.8525 13.9786 1.82908 12.5184C1.82908 12.5145 1.82908 12.5106 1.82908 12.5067C1.82908 11.3901 4.55805 10.2111 7.92535 10.2111C7.92926 10.2111 7.93121 10.2111 7.93511 10.2111C7.93902 10.2111 7.94097 10.2111 7.94487 10.2111C11.3122 10.2111 14.0411 11.3901 14.0411 12.5067C14.0411 12.5106 14.0411 12.5145 14.0411 12.5184H14.0372Z" fill="#59209F"/>
<path d="M5.29407 11.5388C5.66601 11.5388 5.96753 11.2373 5.96753 10.8654C5.96753 10.4934 5.66601 10.1919 5.29407 10.1919C4.92212 10.1919 4.62061 10.4934 4.62061 10.8654C4.62061 11.2373 4.92212 11.5388 5.29407 11.5388Z" fill="#59209F"/>
<path d="M10.5491 11.5623C10.921 11.5623 11.2225 11.2607 11.2225 10.8888C11.2225 10.5169 10.921 10.2153 10.5491 10.2153C10.1771 10.2153 9.87561 10.5169 9.87561 10.8888C9.87561 11.2607 10.1771 11.5623 10.5491 11.5623Z" fill="#59209F"/>
<path d="M7.95467 13.4341C7.95467 13.4341 7.94295 13.4399 7.92148 13.4516C7.90001 13.4399 7.8883 13.4341 7.8883 13.4341C7.8883 13.4341 6.17439 13.4341 6.24271 14.2227C6.31103 15.0113 6.92203 15.7863 7.87463 15.841C7.87463 15.841 7.87658 15.841 7.87854 15.841C7.8922 15.841 7.90782 15.841 7.92148 15.841C7.93515 15.841 7.95076 15.841 7.96443 15.841C7.96443 15.841 7.96638 15.841 7.96833 15.841C8.92093 15.7863 9.53193 15.0113 9.60025 14.2227C9.66857 13.4341 7.95467 13.4341 7.95467 13.4341Z" fill="#59209F"/>
</svg>
