<svg width="28" height="29" viewBox="0 0 28 29" fill="none" xmlns="http://www.w3.org/2000/svg">
<circle cx="13.8003" cy="13.8286" r="13.7139" fill="#FA9C29"/>
<path d="M13.7727 20.3147C12.626 20.3147 11.6127 20.0881 10.7327 19.6347C9.86601 19.1814 9.11934 18.5014 8.49268 17.5947L9.97268 15.8947C10.626 16.8281 11.2527 17.4747 11.8527 17.8347C12.4527 18.1947 13.166 18.3747 13.9927 18.3747C14.4993 18.3747 14.9593 18.2947 15.3727 18.1347C15.786 17.9747 16.1127 17.7547 16.3527 17.4747C16.5927 17.1947 16.7127 16.8747 16.7127 16.5147C16.7127 16.2747 16.6727 16.0481 16.5927 15.8347C16.5127 15.6214 16.386 15.4281 16.2127 15.2547C16.0527 15.0814 15.8393 14.9214 15.5727 14.7747C15.3193 14.6281 15.0193 14.5014 14.6727 14.3947C14.326 14.2747 13.926 14.1747 13.4727 14.0947C12.5127 13.9081 11.7127 13.6281 11.0727 13.2547C10.446 12.8814 9.97268 12.4081 9.65268 11.8347C9.34601 11.2614 9.19268 10.5947 9.19268 9.83475C9.19268 9.27475 9.31268 8.75475 9.55268 8.27475C9.80601 7.79475 10.146 7.38141 10.5727 7.03475C11.0127 6.67475 11.526 6.40141 12.1127 6.21475C12.6993 6.01475 13.3327 5.91475 14.0127 5.91475C15.0927 5.91475 16.0327 6.12808 16.8327 6.55475C17.646 6.96808 18.286 7.57475 18.7527 8.37475L17.2327 9.87475C16.8327 9.22141 16.3527 8.72141 15.7927 8.37475C15.246 8.02808 14.6327 7.85475 13.9527 7.85475C13.4327 7.85475 12.9793 7.93475 12.5927 8.09475C12.206 8.25475 11.8993 8.48141 11.6727 8.77475C11.4593 9.05475 11.3527 9.38808 11.3527 9.77475C11.3527 10.0547 11.406 10.3147 11.5127 10.5547C11.6193 10.7814 11.7793 10.9881 11.9927 11.1747C12.2193 11.3481 12.5193 11.5081 12.8927 11.6547C13.266 11.7881 13.7127 11.9081 14.2327 12.0147C14.966 12.1747 15.6193 12.3814 16.1927 12.6347C16.766 12.8747 17.2527 13.1614 17.6527 13.4947C18.0527 13.8281 18.3527 14.2014 18.5527 14.6147C18.766 15.0281 18.8727 15.4747 18.8727 15.9547C18.8727 16.8481 18.666 17.6214 18.2527 18.2747C17.8393 18.9281 17.2527 19.4347 16.4927 19.7947C15.7327 20.1414 14.826 20.3147 13.7727 20.3147ZM12.5727 21.9347V12.8547L14.5127 13.5147V21.9347H12.5727ZM15.3127 13.5147L13.3727 12.8547V4.47474H15.3127V13.5147Z" fill="white"/>
</svg>
