<svg width="23" height="27" viewBox="0 0 23 27" fill="none" xmlns="http://www.w3.org/2000/svg">
<path d="M12.6159 0.675518C15.8782 1.20519 18.0937 4.27855 17.564 7.54086C17.0349 10.8032 13.961 13.0187 10.6987 12.489C7.4364 11.9599 5.22088 8.88598 5.75055 5.62367C6.28022 2.36189 9.35358 0.146368 12.6159 0.675518Z" fill="#FA9C29"/>
<path d="M22.5762 25.5945C22.5751 25.875 22.4636 26.1435 22.2653 26.3419C22.0669 26.5403 21.7979 26.6523 21.5179 26.6528H1.79853C1.518 26.6517 1.2495 26.5403 1.05113 26.3419C0.852764 26.1435 0.740758 25.8745 0.740234 25.5945C0.740234 22.6991 1.89065 19.922 3.93816 17.8744C5.98567 15.8269 8.7628 14.6765 11.6582 14.6765C14.5536 14.6765 17.3307 15.8269 19.3782 17.8744C21.4258 19.922 22.5762 22.6991 22.5762 25.5945Z" fill="#FA9C29"/>
</svg>
